<?xml version="1.0" encoding="utf-8"?>
<!-- Generator: Adobe Illustrator 22.0.1, SVG Export Plug-In . SVG Version: 6.00 Build 0)  -->
<svg version="1.1" id="Ebene_1" xmlns="http://www.w3.org/2000/svg" xmlns:xlink="http://www.w3.org/1999/xlink" x="0px" y="0px"
	 viewBox="0 0 429 75.2" style="enable-background:new 0 0 429 75.2;" xml:space="preserve">
<style type="text/css">
	.st0{fill:#6EA638;}
</style>
<path class="st0" d="M68.9,35.8c0-1-0.7-2.1-1.5-2.9c-7.3-7.5-14.6-14.9-22-22.3c-3.3-3.3-6.7-6.5-10.1-9.8
	c-10.7,10.7-21,21.1-31.4,31.4c-1.5,1.5-2.2,3-2.2,5.1c0.1,11.4,0,22.7,0.1,34.1c0,1,0.2,1.9,0.2,2.9c10.2,0,20.1,0,30.3,0
	c0-7.4,0.1-14.6,0-21.8c-0.1-4.7-4.2-8.6-9-8.8c-3-0.1-6.1,0-9.1-0.1c-1.4,0-1.9,0.5-1.9,1.9c0.1,3,0,5.9,0,8.9
	c0.1,4.3,3.2,8.3,7.5,9.2c2.5,0.5,5,0.5,7.8,0.8c0,0.8,0.1,1.5,0.1,2.1c0,3.2,0,3.2-3.2,3.2c-5.1,0-10.2,0-15.3,0
	c-1.8,0-2.6-0.5-2.6-2.5c0.1-9.6,0-19.3,0.1-28.9c0-1.1,0.7-2.5,1.5-3.4c6.4-6.6,12.9-13,19.3-19.5c2.6-2.6,5.2-5.2,7.8-7.7
	C36,8.3,36.4,8.6,36.8,9c8.7,8.7,17.5,17.4,26.2,26.2c0.7,0.7,1.1,2,1.1,3c0.1,9.6,0,19.3,0.1,28.9c0,2-0.7,2.6-2.6,2.5
	c-4.6-0.1-9.2,0-13.8,0c-5.1,0-5.1,0-4.6-5c0-0.1,0.2-0.3,0.4-0.6c1.4,0,3,0,4.5,0c5.5-0.2,10.1-4,10.3-8.7c0.2-3.3,0-6.6,0.1-9.9
	c0-1.4-0.6-1.9-1.9-1.8c-2.6,0.1-5.3,0-7.9,0c-6.3,0-10.3,4-10.3,10.3c0,5.9,0,11.9,0,17.8c0,0.9,0.2,1.7,0.2,2.5
	c10.2,0,20.1,0,30.1,0c0.1-0.7,0.2-1.2,0.2-1.6C68.9,60.4,69,48.1,68.9,35.8z M26.5,59.1c-2.3,1.1-6.8-0.2-8.2-1.9
	c-2-2.4-1.3-5.3-1.2-8c0-0.3,0.6-0.7,1-0.8c5.7-1.6,9.5,1.2,10,7.2C27.5,56.8,27.4,58.7,26.5,59.1z M43.1,55.2
	c0-5.7,4.3-8.7,9.6-6.9c0.4,0.1,0.9,0.6,0.9,1c0.1,2.7,0.8,5.7-1.4,8c-2.2,2.5-5.2,2-8.1,1.9c-0.4,0-1-0.8-1.1-1.3
	C43,57.1,43.1,56.2,43.1,55.2z"/>
<path class="st0" d="M35.7,15.7c2.5,2.6,5,5.1,7.4,7.7c3.4,3.8,3.3,9.4,0,13.3c-0.4,0.5-0.9,1-1.3,1.5c-2,2.1-3.9,4.2-6.4,6.8
	c-3.3-3.8-6.6-7-9.1-10.7c-2.2-3.4-1.5-7.3,1-10.3C29.7,21.2,32.6,18.7,35.7,15.7z M29.8,31c0.6,0.9,1.4,2.4,2.6,3.7
	c2.9,3.1,2.9,3,5.8,0.1c3.8-3.9,2.7-9.3-2.4-11.5c-0.3-0.1-0.6-0.2-0.9-0.1C33.3,23.5,29.8,28.4,29.8,31z"/>
<g>
	<path d="M130.9,59.5l-0.5-6c-1.9,3.4-6.5,6.9-13.6,6.9c-10.7,0-20.6-7.8-20.6-22.2c0-14.4,10.6-22.1,21.1-22.1
		c9.2,0,16.4,5.2,18.8,12.8l-5.3,2.3c-1.9-6.1-6.9-9.7-13.5-9.7c-7.6,0-15.1,5.5-15.1,16.7c0,11.3,7.2,16.9,14.8,16.9
		c9.5,0,12.9-6.7,13.1-11.1h-14.8v-5.3h20.3v20.8H130.9z"/>
	<path d="M160.1,36.3c-0.8-0.1-1.7-0.2-2.5-0.2c-4.7,0-7.9,2.5-7.9,8.9v14.5h-5.6V30.6h5.5v5c2.1-4.4,5.7-5.5,8.6-5.5
		c0.8,0,1.6,0.1,1.9,0.2V36.3z"/>
	<path d="M191,51.2c-1.6,5.1-6.2,9.1-13,9.1c-7.7,0-14.5-5.6-14.5-15.4c0-9.1,6.5-15.2,13.8-15.2c8.9,0,13.9,6.1,13.9,15.1
		c0,0.7-0.1,1.4-0.1,1.8h-21.7c0.1,5.2,3.8,8.8,8.7,8.8c4.7,0,7-2.6,8.1-5.8L191,51.2z M185.3,42.1c-0.1-4.1-2.8-7.4-7.9-7.4
		c-4.7,0-7.6,3.7-7.9,7.4H185.3z"/>
	<path d="M223.5,51.2c-1.6,5.1-6.2,9.1-13,9.1c-7.7,0-14.5-5.6-14.5-15.4c0-9.1,6.5-15.2,13.8-15.2c8.9,0,13.9,6.1,13.9,15.1
		c0,0.7-0.1,1.4-0.1,1.8h-21.7c0.1,5.2,3.8,8.8,8.7,8.8c4.7,0,7-2.6,8.1-5.8L223.5,51.2z M217.8,42.1c-0.1-4.1-2.8-7.4-7.9-7.4
		c-4.7,0-7.6,3.7-7.9,7.4H217.8z"/>
	<path d="M236.5,59.5h-5.6V30.6h5.5v4.1c2.1-3.6,5.5-5,8.9-5c6.9,0,10.3,5,10.3,11.4v18.3H250V42.1c0-4-1.7-7.3-6.7-7.3
		c-4.4,0-6.7,3.5-6.7,7.9V59.5z"/>
	<path d="M292.8,59.5V40.6h-21.7v18.9h-5.9V16.9h5.9v18.2h21.7V16.9h5.9v42.5H292.8z"/>
	<path d="M336,45c0,8.8-6.1,15.4-14.8,15.4s-14.8-6.5-14.8-15.4c0-8.8,6.1-15.3,14.8-15.3S336,36.2,336,45z M330.2,45
		c0-6.7-4.2-10.3-9-10.3s-9,3.6-9,10.3c0,6.7,4.2,10.3,9,10.3S330.2,51.7,330.2,45z"/>
	<path d="M353.4,60.4c-6.7,0-10.8-5-10.8-11.6V30.6h5.6v17.3c0,4,1.8,7.4,6.5,7.4c4.6,0,6.8-3,6.8-7.4V30.6h5.6v23.5
		c0,2.3,0.2,4.3,0.3,5.3h-5.4c-0.1-0.7-0.2-2.3-0.2-3.5C360.4,59,356.8,60.4,353.4,60.4z"/>
	<path d="M379.3,50.2c0.4,3,2.6,5.4,6.7,5.4c3.2,0,4.9-1.8,4.9-3.8c0-1.8-1.3-3.2-3.7-3.7l-4.9-1.1c-4.5-1-7.2-4-7.2-8.1
		c0-4.9,4.6-9.1,10.3-9.1c7.9,0,10.4,5.2,11,7.7l-5,1.9c-0.2-1.5-1.4-4.8-6-4.8c-2.9,0-4.8,1.9-4.8,3.8c0,1.7,1.1,3,3.3,3.5l4.7,1
		c5.2,1.1,8,4.3,8,8.6c0,4.1-3.4,8.9-10.6,8.9c-7.9,0-11.3-5.1-11.8-8.4L379.3,50.2z"/>
	<path d="M428.8,51.2c-1.6,5.1-6.2,9.1-13,9.1c-7.7,0-14.5-5.6-14.5-15.4c0-9.1,6.5-15.2,13.8-15.2c8.9,0,13.9,6.1,13.9,15.1
		c0,0.7-0.1,1.4-0.1,1.8h-21.7c0.1,5.2,3.8,8.8,8.7,8.8c4.7,0,7-2.6,8.1-5.8L428.8,51.2z M423.1,42.1c-0.1-4.1-2.8-7.4-7.9-7.4
		c-4.7,0-7.6,3.7-7.9,7.4H423.1z"/>
</g>
</svg>
