<?xml version="1.0" encoding="utf-8"?>
<svg version="1.1" id="Ebene_1" xmlns="http://www.w3.org/2000/svg" xmlns:xlink="http://www.w3.org/1999/xlink" x="0px" y="0px"
	 viewBox="0 0 70.9 75.2" style="enable-background:new 0 0 70.9 75.2;" xml:space="preserve">
<style type="text/css">
	.st0{fill:#6EA638;}
</style>
<path class="st0" d="M68.9,35.8c0-1-0.7-2.1-1.5-2.9c-7.3-7.5-14.6-14.9-22-22.3c-3.3-3.3-6.7-6.5-10.1-9.8
	c-10.7,10.7-21,21.1-31.4,31.4c-1.5,1.5-2.2,3-2.2,5.1c0.1,11.4,0,22.7,0.1,34.1c0,1,0.2,1.9,0.2,2.9c10.2,0,20.1,0,30.3,0
	c0-7.4,0.1-14.6,0-21.8c-0.1-4.7-4.2-8.6-9-8.8c-3-0.1-6.1,0-9.1-0.1c-1.4,0-1.9,0.5-1.9,1.9c0.1,3,0,5.9,0,8.9
	c0.1,4.3,3.2,8.3,7.5,9.2c2.5,0.5,5,0.5,7.8,0.8c0,0.8,0.1,1.5,0.1,2.1c0,3.2,0,3.2-3.2,3.2c-5.1,0-10.2,0-15.3,0
	c-1.8,0-2.6-0.5-2.6-2.5c0.1-9.6,0-19.3,0.1-28.9c0-1.1,0.7-2.5,1.5-3.4c6.4-6.6,12.9-13,19.3-19.5c2.6-2.6,5.2-5.2,7.8-7.7
	C36,8.3,36.4,8.6,36.8,9c8.7,8.7,17.5,17.4,26.2,26.2c0.7,0.7,1.1,2,1.1,3c0.1,9.6,0,19.3,0.1,28.9c0,2-0.7,2.6-2.6,2.5
	c-4.6-0.1-9.2,0-13.8,0c-5.1,0-5.1,0-4.6-5c0-0.1,0.2-0.3,0.4-0.6c1.4,0,3,0,4.5,0c5.5-0.2,10.1-4,10.3-8.7c0.2-3.3,0-6.6,0.1-9.9
	c0-1.4-0.6-1.9-1.9-1.8c-2.6,0.1-5.3,0-7.9,0c-6.3,0-10.3,4-10.3,10.3c0,5.9,0,11.9,0,17.8c0,0.9,0.2,1.7,0.2,2.5
	c10.2,0,20.1,0,30.1,0c0.1-0.7,0.2-1.2,0.2-1.6C68.9,60.4,69,48.1,68.9,35.8z M26.5,59.1c-2.3,1.1-6.8-0.2-8.2-1.9
	c-2-2.4-1.3-5.3-1.2-8c0-0.3,0.6-0.7,1-0.8c5.7-1.6,9.5,1.2,10,7.2C27.5,56.8,27.4,58.7,26.5,59.1z M43.1,55.2
	c0-5.7,4.3-8.7,9.6-6.9c0.4,0.1,0.9,0.6,0.9,1c0.1,2.7,0.8,5.7-1.4,8c-2.2,2.5-5.2,2-8.1,1.9c-0.4,0-1-0.8-1.1-1.3
	C43,57.1,43.1,56.2,43.1,55.2z"/>
<path class="st0" d="M35.7,15.7c2.5,2.6,5,5.1,7.4,7.7c3.4,3.8,3.3,9.4,0,13.3c-0.4,0.5-0.9,1-1.3,1.5c-2,2.1-3.9,4.2-6.4,6.8
	c-3.3-3.8-6.6-7-9.1-10.7c-2.2-3.4-1.5-7.3,1-10.3C29.7,21.2,32.6,18.7,35.7,15.7z M29.8,31c0.6,0.9,1.4,2.4,2.6,3.7
	c2.9,3.1,2.9,3,5.8,0.1c3.8-3.9,2.7-9.3-2.4-11.5c-0.3-0.1-0.6-0.2-0.9-0.1C33.3,23.5,29.8,28.4,29.8,31z"/>
</svg>
