<svg fill="#000000" xmlns="http://www.w3.org/2000/svg" viewBox="0 0 80 80" width="80px" height="80px"><path d="M 56 16 C 54.90625 16 54 16.90625 54 18 L 54 23 L 55 23 L 55 29.292969 L 40 20.855469 L 7 39.417969 L 7 50.707031 L 8.492188 49.871094 L 40 32.144531 L 73 50.707031 L 73 39.417969 L 67 36.042969 L 67 23 L 68 23 L 68 18 C 68 16.90625 67.09375 16 66 16 Z M 56 18 L 66 18 L 66 21 L 65 21 C 64.449219 21 64 21.449219 64 22 C 64 22.550781 64.449219 23 65 23 L 65 34.917969 L 57 30.417969 L 57 23 C 57.550781 23 58 22.550781 58 22 C 58 21.449219 57.550781 21 57 21 L 56 21 Z M 61 21 C 60.449219 21 60 21.449219 60 22 C 60 22.550781 60.449219 23 61 23 C 61.550781 23 62 22.550781 62 22 C 62 21.449219 61.550781 21 61 21 Z M 40 23.144531 L 71 40.582031 L 71 47.292969 L 40 29.855469 L 9 47.292969 L 9 40.582031 Z M 12 51 C 11.449219 51 11 51.449219 11 52 C 11 52.550781 11.449219 53 12 53 C 12.550781 53 13 52.550781 13 52 C 13 51.449219 12.550781 51 12 51 Z M 68 51 C 67.449219 51 67 51.449219 67 52 C 67 52.550781 67.449219 53 68 53 C 68.550781 53 69 52.550781 69 52 C 69 51.449219 68.550781 51 68 51 Z M 12 55 C 11.449219 55 11 55.449219 11 56 C 11 56.550781 11.449219 57 12 57 C 12.550781 57 13 56.550781 13 56 C 13 55.449219 12.550781 55 12 55 Z M 68 55 C 67.449219 55 67 55.449219 67 56 C 67 56.550781 67.449219 57 68 57 C 68.550781 57 69 56.550781 69 56 C 69 55.449219 68.550781 55 68 55 Z M 12 59 C 11.449219 59 11 59.449219 11 60 C 11 60.550781 11.449219 61 12 61 C 12.550781 61 13 60.550781 13 60 C 13 59.449219 12.550781 59 12 59 Z M 68 59 C 67.449219 59 67 59.449219 67 60 C 67 60.550781 67.449219 61 68 61 C 68.550781 61 69 60.550781 69 60 C 69 59.449219 68.550781 59 68 59 Z M 12 63 C 11.449219 63 11 63.449219 11 64 C 11 64.550781 11.449219 65 12 65 C 12.550781 65 13 64.550781 13 64 C 13 63.449219 12.550781 63 12 63 Z M 68 63 C 67.449219 63 67 63.449219 67 64 C 67 64.550781 67.449219 65 68 65 C 68.550781 65 69 64.550781 69 64 C 69 63.449219 68.550781 63 68 63 Z"/></svg>