<svg fill="#000000" xmlns="http://www.w3.org/2000/svg" viewBox="0 0 80 80" width="80px" height="80px"><path d="M 15 9 L 15 71 L 65 71 L 65 9 Z M 17 11 L 63 11 L 63 69 L 17 69 Z M 20 14 L 20 66 L 60 66 L 60 14 Z M 22 16 L 58 16 L 58 64 L 22 64 Z M 40 17 C 39.449219 17 39 17.449219 39 18 C 39 18.550781 39.449219 19 40 19 C 40.550781 19 41 18.550781 41 18 C 41 17.449219 40.550781 17 40 17 Z M 40 21 C 39.449219 21 39 21.449219 39 22 C 39 22.550781 39.449219 23 40 23 C 40.550781 23 41 22.550781 41 22 C 41 21.449219 40.550781 21 40 21 Z M 40 25 C 39.449219 25 39 25.449219 39 26 C 39 26.550781 39.449219 27 40 27 C 40.550781 27 41 26.550781 41 26 C 41 25.449219 40.550781 25 40 25 Z M 40 29 C 39.449219 29 39 29.449219 39 30 C 39 30.550781 39.449219 31 40 31 C 40.550781 31 41 30.550781 41 30 C 41 29.449219 40.550781 29 40 29 Z M 40 33 C 39.449219 33 39 33.449219 39 34 C 39 34.550781 39.449219 35 40 35 C 40.550781 35 41 34.550781 41 34 C 41 33.449219 40.550781 33 40 33 Z M 24 37 C 23.449219 37 23 37.449219 23 38 C 23 38.550781 23.449219 39 24 39 C 24.550781 39 25 38.550781 25 38 C 25 37.449219 24.550781 37 24 37 Z M 28 37 C 27.449219 37 27 37.449219 27 38 C 27 38.550781 27.449219 39 28 39 C 28.550781 39 29 38.550781 29 38 C 29 37.449219 28.550781 37 28 37 Z M 32 37 C 31.449219 37 31 37.449219 31 38 C 31 38.550781 31.449219 39 32 39 C 32.550781 39 33 38.550781 33 38 C 33 37.449219 32.550781 37 32 37 Z M 36 37 C 35.449219 37 35 37.449219 35 38 C 35 38.550781 35.449219 39 36 39 C 36.550781 39 37 38.550781 37 38 C 37 37.449219 36.550781 37 36 37 Z M 40 37 C 39.449219 37 39 37.449219 39 38 C 39 38.550781 39.449219 39 40 39 C 40.550781 39 41 38.550781 41 38 C 41 37.449219 40.550781 37 40 37 Z M 44 37 C 43.449219 37 43 37.449219 43 38 C 43 38.550781 43.449219 39 44 39 C 44.550781 39 45 38.550781 45 38 C 45 37.449219 44.550781 37 44 37 Z M 48 37 C 47.449219 37 47 37.449219 47 38 C 47 38.550781 47.449219 39 48 39 C 48.550781 39 49 38.550781 49 38 C 49 37.449219 48.550781 37 48 37 Z M 52 37 C 51.449219 37 51 37.449219 51 38 C 51 38.550781 51.449219 39 52 39 C 52.550781 39 53 38.550781 53 38 C 53 37.449219 52.550781 37 52 37 Z M 56 37 C 55.449219 37 55 37.449219 55 38 C 55 38.550781 55.449219 39 56 39 C 56.550781 39 57 38.550781 57 38 C 57 37.449219 56.550781 37 56 37 Z M 40 41 C 39.449219 41 39 41.449219 39 42 C 39 42.550781 39.449219 43 40 43 C 40.550781 43 41 42.550781 41 42 C 41 41.449219 40.550781 41 40 41 Z M 40 45 C 39.449219 45 39 45.449219 39 46 C 39 46.550781 39.449219 47 40 47 C 40.550781 47 41 46.550781 41 46 C 41 45.449219 40.550781 45 40 45 Z M 40 49 C 39.449219 49 39 49.449219 39 50 C 39 50.550781 39.449219 51 40 51 C 40.550781 51 41 50.550781 41 50 C 41 49.449219 40.550781 49 40 49 Z M 40 53 C 39.449219 53 39 53.449219 39 54 C 39 54.550781 39.449219 55 40 55 C 40.550781 55 41 54.550781 41 54 C 41 53.449219 40.550781 53 40 53 Z M 40 57 C 39.449219 57 39 57.449219 39 58 C 39 58.550781 39.449219 59 40 59 C 40.550781 59 41 58.550781 41 58 C 41 57.449219 40.550781 57 40 57 Z M 40 61 C 39.449219 61 39 61.449219 39 62 C 39 62.550781 39.449219 63 40 63 C 40.550781 63 41 62.550781 41 62 C 41 61.449219 40.550781 61 40 61 Z"/></svg>